<svg width="20" height="20" viewBox="0 0 20 20" fill="none" xmlns="http://www.w3.org/2000/svg">
<g clip-path="url(#clip0_9_612)">
<path d="M13.7578 8.24185C13.6553 8.13931 13.5244 8.08939 13.3652 8.09209L8.00643 8.10019C7.92008 8.10019 7.84453 8.11368 7.77977 8.14066C7.71771 8.16494 7.6624 8.20137 7.61383 8.24994C7.51399 8.34978 7.46408 8.46715 7.46408 8.60206C7.46138 8.73428 7.50995 8.8503 7.60978 8.95014C7.65835 8.99871 7.71367 9.03783 7.77573 9.06752C7.83509 9.0945 7.89715 9.10799 7.96191 9.10799L9.79133 9.12418L12.8633 8.98252L12.7419 8.6992L11.3577 9.92152L6.23771 15.0415C6.13248 15.1467 6.07986 15.2668 6.07986 15.4017C6.08256 15.5339 6.13653 15.6526 6.24176 15.7579C6.34699 15.8631 6.46572 15.9171 6.59793 15.9198C6.73285 15.9198 6.85292 15.8672 6.95815 15.7619L12.0781 10.642L13.3004 9.25774L13.0212 9.14037L12.8755 12.2083L12.8916 14.0377C12.8916 14.1025 12.9065 14.1659 12.9362 14.228C12.9631 14.2873 13.0009 14.3413 13.0495 14.3899C13.1493 14.4897 13.2654 14.5383 13.3976 14.5356C13.5325 14.5356 13.6499 14.4856 13.7497 14.3858C13.8468 14.2887 13.8967 14.1632 13.8994 14.0094L13.9075 8.63444C13.9102 8.47525 13.8603 8.34438 13.7578 8.24185Z" fill="#91A3B1"/>
</g>
<defs>
<clipPath id="clip0_9_612">
<rect width="20" height="20" fill="white"/>
</clipPath>
</defs>
</svg>
