<svg width="21" height="20" viewBox="0 0 21 20" fill="none" xmlns="http://www.w3.org/2000/svg">
<g clip-path="url(#clip0_62_474)">
<path d="M16.8467 10C16.8467 9.82682 16.7783 9.67415 16.6416 9.54199L12.1094 5.02344C12.0365 4.95052 11.9613 4.89811 11.8838 4.86621C11.8109 4.83431 11.7334 4.81836 11.6514 4.81836C11.4827 4.81836 11.3415 4.87533 11.2275 4.98926C11.1136 5.09863 11.0566 5.23763 11.0566 5.40625C11.0566 5.48828 11.0703 5.56803 11.0977 5.64551C11.125 5.71842 11.166 5.78223 11.2207 5.83691L12.752 7.39551L15.4658 9.87012L15.6025 9.52832L13.4014 9.3916H4.75391C4.57617 9.3916 4.43034 9.44857 4.31641 9.5625C4.20703 9.67643 4.15234 9.82227 4.15234 10C4.15234 10.1777 4.20703 10.3236 4.31641 10.4375C4.43034 10.5514 4.57617 10.6084 4.75391 10.6084H13.4014L15.6025 10.4717L15.4658 10.1367L12.752 12.6045L11.2207 14.1631C11.166 14.2178 11.125 14.2839 11.0977 14.3613C11.0703 14.4342 11.0566 14.5117 11.0566 14.5938C11.0566 14.7624 11.1136 14.9014 11.2275 15.0107C11.3415 15.1247 11.4827 15.1816 11.6514 15.1816C11.8154 15.1816 11.9635 15.1178 12.0957 14.9902L16.6416 10.458C16.7783 10.3258 16.8467 10.1732 16.8467 10Z" fill="#011829"/>
</g>
<defs>
<clipPath id="clip0_62_474">
<rect width="20" height="20" fill="white" transform="translate(0.5)"/>
</clipPath>
</defs>
</svg>
