<svg width="36" height="36" viewBox="0 0 36 36" fill="none" xmlns="http://www.w3.org/2000/svg">
<g clip-path="url(#clip0_1584_21681)">
<rect x="0.432617" y="0.308594" width="35.48" height="35.48" rx="17.74" fill="white"/>
<circle cx="18.1726" cy="18.0486" r="17.74" fill="#4CA2FF"/>
<path fill-rule="evenodd" clip-rule="evenodd" d="M10.8696 25.3079H14.1662V14.6573H10.8696V25.3079ZM10.5527 11.2973C10.5527 12.3826 11.4256 13.2625 12.5022 13.2625C13.5788 13.2625 14.4516 12.3826 14.4516 11.2973C14.4516 10.2119 13.5787 9.33203 12.5022 9.33203C11.4257 9.33203 10.5527 10.2119 10.5527 11.2973ZM23.2398 25.3079H26.5205L26.5206 18.5641C26.5206 15.7114 24.9039 14.3324 22.6454 14.3324C20.3871 14.3324 19.436 16.0917 19.436 16.0917V14.6573H16.2741V25.3079H19.436V19.7172C19.436 18.2194 20.1253 17.3279 21.4449 17.3279C22.6574 17.3279 23.2398 18.1838 23.2398 19.7172V25.3079Z" fill="white"/>
</g>
<defs>
<clipPath id="clip0_1584_21681">
<rect x="0.432617" y="0.308594" width="35.48" height="35.48" rx="17.74" fill="white"/>
</clipPath>
</defs>
</svg>
