<svg width="37" height="36" viewBox="0 0 37 36" fill="none" xmlns="http://www.w3.org/2000/svg">
<circle cx="18.6921" cy="18.0486" r="17.74" fill="#4CA2FF"/>
<path d="M18.9835 25.4371L14.7216 25.3593C13.3418 25.3321 11.9584 25.3863 10.6056 25.1053C8.54764 24.6856 8.40185 22.6275 8.24929 20.9011C8.03908 18.4741 8.12046 16.003 8.51715 13.5962C8.74109 12.2458 9.62241 11.4399 10.9853 11.3522C15.5862 11.034 20.2177 11.0717 24.8083 11.2202C25.2932 11.2338 25.7813 11.3082 26.2594 11.3929C28.6193 11.8059 28.6768 14.1381 28.8298 16.1015C28.9823 18.0851 28.9179 20.0789 28.6263 22.049C28.3924 23.6802 27.9448 25.0481 26.056 25.1801C23.6893 25.3528 21.377 25.4918 19.0038 25.4476C19.0039 25.4371 18.9902 25.4371 18.9835 25.4371ZM16.4779 21.3074C18.2614 20.285 20.0108 19.2797 21.784 18.2642C19.9973 17.2419 18.2512 16.2366 16.4779 15.2211V21.3074Z" fill="white"/>
</svg>
